<svg id="Capa_1_copia" data-name="Capa 1 copia" xmlns="http://www.w3.org/2000/svg" viewBox="0 0 104.08 105.06"><defs><style>.cls-1{fill:#fff;}</style></defs><title>blanco</title><polygon class="cls-1" points="4.12 104.91 6.28 104.91 6.28 100.71 10.07 100.71 10.07 98.86 6.28 98.86 6.28 96.64 10.39 96.64 10.39 94.77 4.12 94.77 4.12 104.91"/><path class="cls-1" d="M92.27,150.29a5,5,0,0,0-5.09,5.31,4.82,4.82,0,0,0,4.94,5.13c3,0,5.1-2.13,5.1-5.31A4.83,4.83,0,0,0,92.27,150.29Zm-.07,8.6c-1.91,0-2.77-1.72-2.77-3.32s.73-3.44,2.78-3.44S95,153.86,95,155.47,94.12,158.89,92.2,158.89Z" transform="translate(-55.92 -55.67)"/><path class="cls-1" d="M123,150.29a5,5,0,0,0-5.09,5.31,4.82,4.82,0,0,0,4.94,5.13c3,0,5.1-2.13,5.1-5.31A4.83,4.83,0,0,0,123,150.29Zm-.07,8.6c-1.91,0-2.77-1.72-2.77-3.32s.72-3.44,2.78-3.44,2.77,1.73,2.77,3.34S124.87,158.89,123,158.89Z" transform="translate(-55.92 -55.67)"/><path class="cls-1" d="M156.81,151.63a6.51,6.51,0,0,0-4.35-1.25,20.66,20.66,0,0,0-2.82.19l-.37.05v9.89l.39,0a21.9,21.9,0,0,0,2.4.11,6.93,6.93,0,0,0,4.73-1.44,5.13,5.13,0,0,0,1.58-3.93A4.58,4.58,0,0,0,156.81,151.63Zm-4.5,7.21c-.25,0-.59,0-.88,0v-6.56a7.67,7.67,0,0,1,1.09-.06,3.91,3.91,0,0,1,2.86.93,3,3,0,0,1,.78,2.21C156.16,157.63,154.83,158.84,152.31,158.84Z" transform="translate(-55.92 -55.67)"/><path class="cls-1" d="M97.54,127.7h7.64v7.7a19.84,19.84,0,0,1-4.46.42c-7.82,0-12.49-4.89-12.49-13.08s4.9-13,13.1-13a17.43,17.43,0,0,1,7.5,1.44l2.09.92,2.31-7.77-1.55-.74a25.17,25.17,0,0,0-10.24-1.92c-6.61,0-12.25,2.09-16.28,6A21.23,21.23,0,0,0,79.08,123c0,6.19,2.14,11.79,5.87,15.38,3.89,3.69,8.94,5.49,15.43,5.49a36.91,36.91,0,0,0,12.22-2.17l1.34-.48v-21.4H97.54Z" transform="translate(-55.92 -55.67)"/><path class="cls-1" d="M154.9,107.41a17.8,17.8,0,0,0-13.81-6c-11.46,0-19.46,8.9-19.46,21.65,0,12.35,7.77,21,18.9,21,9.69,0,19.47-6.71,19.47-21.7C160,116.37,158.23,111.2,154.9,107.41Zm-14,2c6.85,0,10,6.84,10,13.19,0,6.73-3.11,13.52-10,13.52s-10-6.81-10-13.13S133.46,109.39,140.87,109.39Z" transform="translate(-55.92 -55.67)"/><path class="cls-1" d="M90.78,95.44V74H74.37v7.91H82v7.71a20.27,20.27,0,0,1-4.45.42c-7.82,0-12.49-4.89-12.49-13.08S70,64,78.17,64a17.5,17.5,0,0,1,7.5,1.43l2.09.93,2.31-7.78-1.55-.74a25.17,25.17,0,0,0-10.24-1.92C71.67,55.89,66,58,62,61.94a21.26,21.26,0,0,0-6.07,15.27c0,6.2,2.13,11.8,5.87,15.38,3.89,3.7,8.94,5.5,15.43,5.5a36.91,36.91,0,0,0,12.22-2.17Z" transform="translate(-55.92 -55.67)"/><path class="cls-1" d="M136.84,76.6c0-6-1.77-11.15-5.11-14.95a17.8,17.8,0,0,0-13.8-6c-11.46,0-19.47,8.9-19.47,21.65,0,12.36,7.78,21,18.91,21C127.06,98.31,136.84,91.6,136.84,76.6Zm-19.13-13c6.85,0,10,6.84,10,13.19,0,6.73-3.1,13.53-10,13.53s-10-6.81-10-13.14S110.3,63.63,117.71,63.63Z" transform="translate(-55.92 -55.67)"/></svg>